<svg width="85" height="65" viewBox="0 0 85 65" fill="none" xmlns="http://www.w3.org/2000/svg">
<mask id="path-1-outside-1_1_1105" maskUnits="userSpaceOnUse" x="0" y="0.73938" width="85" height="65" fill="black">
<rect fill="white" y="0.73938" width="85" height="65"/>
<path d="M26.3559 17.6192C26.2177 17.8847 26.1545 18.1829 26.173 18.4816C26.1916 18.7803 26.2911 19.0684 26.4609 19.3148L41.2339 40.6535C41.3849 40.8716 41.5866 41.0498 41.8216 41.1729C42.0566 41.2959 42.3179 41.3602 42.5831 41.3602C42.8484 41.3602 43.1097 41.2959 43.3447 41.1729C43.5797 41.0498 43.7813 40.8716 43.9324 40.6535L58.7054 19.3148C58.877 19.0688 58.9778 18.7804 58.9967 18.4811C59.0157 18.1818 58.9521 17.883 58.8129 17.6173C58.6737 17.3516 58.4643 17.1293 58.2074 16.9745C57.9505 16.8197 57.656 16.7383 57.3561 16.7394L27.8102 16.7394C27.5105 16.7393 27.2166 16.8213 26.9603 16.9764C26.7039 17.1315 26.4949 17.3538 26.3559 17.6192ZM54.2226 20.0223L42.5831 36.8356L30.9437 20.0223H54.2226Z"/>
</mask>
<path d="M26.3559 17.6192L12.1825 10.1952L12.1718 10.2156L12.1612 10.236L26.3559 17.6192ZM26.4609 19.3148L13.2862 28.3937L13.296 28.408L13.3058 28.4222L26.4609 19.3148ZM41.2339 40.6535L28.0788 49.7609L28.0819 49.7654L41.2339 40.6535ZM43.9324 40.6535L57.0844 49.7654L57.0875 49.7609L43.9324 40.6535ZM58.7054 19.3148L45.583 10.1604L45.5666 10.1839L45.5503 10.2075L58.7054 19.3148ZM57.3561 16.7394V32.7394H57.3841L57.4121 32.7393L57.3561 16.7394ZM27.8102 16.7394L27.8075 32.7394H27.8102V16.7394ZM54.2226 20.0223L67.3779 29.1294L84.7589 4.02227L54.2226 4.02227V20.0223ZM42.5831 36.8356L29.4279 45.9426L42.5831 64.9455L55.7384 45.9426L42.5831 36.8356ZM30.9437 20.0223V4.02227L0.407341 4.02227L17.7884 29.1294L30.9437 20.0223ZM12.1612 10.236C10.6822 13.0794 10.0055 16.2719 10.2037 19.471L42.1424 17.4922C42.3036 20.0938 41.7533 22.6901 40.5505 25.0024L12.1612 10.236ZM10.2037 19.471C10.4019 22.6699 11.4675 25.7545 13.2862 28.3937L39.6356 10.2359C41.1147 12.3822 41.9813 14.8907 42.1424 17.4922L10.2037 19.471ZM13.3058 28.4222L28.0788 49.7609L54.3889 31.5462L39.616 10.2075L13.3058 28.4222ZM28.0819 49.7654C29.7055 52.1088 31.8728 54.0239 34.3983 55.3466L49.2449 26.9991C51.3004 28.0757 53.0644 29.6343 54.3859 31.5417L28.0819 49.7654ZM34.3983 55.3466C36.9238 56.6693 39.7322 57.3602 42.5831 57.3602V25.3602C44.9035 25.3602 47.1893 25.9226 49.2449 26.9991L34.3983 55.3466ZM42.5831 57.3602C45.434 57.3602 48.2425 56.6693 50.768 55.3466L35.9214 26.9991C37.977 25.9225 40.2628 25.3602 42.5831 25.3602V57.3602ZM50.768 55.3466C53.2935 54.0239 55.4608 52.1088 57.0844 49.7654L30.7804 31.5417C32.1019 29.6344 33.8659 28.0757 35.9214 26.9991L50.768 55.3466ZM57.0875 49.7609L71.8604 28.4222L45.5503 10.2075L30.7773 31.5462L57.0875 49.7609ZM71.8278 28.4692C73.6754 25.8207 74.7605 22.7157 74.9647 19.4928L43.0287 17.4695C43.195 14.8452 44.0785 12.317 45.583 10.1604L71.8278 28.4692ZM74.9647 19.4928C75.1689 16.2699 74.4843 13.0528 72.9857 10.1922L44.6401 25.0424C43.4199 22.7132 42.8625 20.0937 43.0287 17.4695L74.9647 19.4928ZM72.9857 10.1922C71.487 7.33161 69.2318 4.9374 66.4659 3.27055L49.9489 30.6784C47.6967 29.3212 45.8604 27.3717 44.6401 25.0424L72.9857 10.1922ZM66.4659 3.27055C63.7 1.6037 60.5295 0.728189 57.3001 0.739488L57.4121 32.7393C54.7826 32.7485 52.201 32.0356 49.9489 30.6784L66.4659 3.27055ZM57.3561 0.73939L27.8102 0.73939V32.7394H57.3561V0.73939ZM27.8128 0.73939C24.5926 0.738859 21.4336 1.61975 18.6784 3.28659L35.2421 30.6662C32.9996 32.0229 30.4285 32.7398 27.8075 32.7394L27.8128 0.73939ZM18.6784 3.28659C15.9231 4.95344 13.6767 7.34264 12.1825 10.1952L40.5292 25.0432C39.3131 27.3649 37.4847 29.3095 35.2421 30.6662L18.6784 3.28659ZM41.0673 10.9152L29.4279 27.7285L55.7384 45.9426L67.3779 29.1294L41.0673 10.9152ZM55.7384 27.7285L44.0989 10.9152L17.7884 29.1294L29.4279 45.9426L55.7384 27.7285ZM30.9437 36.0223H54.2226V4.02227L30.9437 4.02227V36.0223Z" fill="#FF6464" mask="url(#path-1-outside-1_1_1105)"/>
</svg>
